<mxfile host="app.diagrams.net" modified="2024-07-06T02:21:49.784Z" agent="Mozilla/5.0 (Windows NT 10.0; Win64; x64) AppleWebKit/537.36 (KHTML, like Gecko) Chrome/126.0.0.0 Safari/537.36" version="24.6.4" etag="FkttCyx4qjSsGUfjXMWL" type="github">
  <diagram name="Page-1" id="KMW5VooDRoQXLhsQxqWC">
    <mxGraphModel>
      <root>
        <mxCell id="0" />
        <mxCell id="1" parent="0" />
      </root>
    </mxGraphModel>
  </diagram>
</mxfile>
